<svg height="644pt" viewBox="-53 0 644 644.5164" width="644pt" xmlns="http://www.w3.org/2000/svg"><path d="m247.367188 645c-9.980469 0-20.042969-.554688-29.984376-1.667969-5.449218-.527343-9.75-5.113281-9.75-10.699219 0-5.65625 4.320313-10.289062 9.863282-10.71875 90.699218-11.839843 159.050781-89.652343 159.070312-181.164062 0-85.589844-57.832031-171.714844-129-195.863281v77.613281c0 3.96875-2.183594 7.609375-5.679687 9.480469-3.492188 1.871093-7.734375 1.660156-11.03125-.535157l-225.75-150.5c-2.941407-1.964843-4.730469-5.238281-4.789063-8.765624-.058594-3.539063 1.628906-6.875 4.503906-8.921876l225.75-161.257812c3.273438-2.332031 7.585938-2.65625 11.164063-.808594 3.582031 1.84375 5.832031 5.53125 5.832031 9.558594v64.5c165.472656 0 290.25 117.851562 290.25 274.125 1.535156 161.425781-128.621094 294.09375-290.148437 295.625-.101563 0-.199219 0-.300781 0zm-10.546876-425.054688c.785157 0 1.578126.082032 2.367188.261719 87.609375 19.765625 158.882812 118.699219 158.882812 220.542969-.023437 75.902344-42.097656 143.371094-105.222656 178.53125 127.886719-22.867188 224.742188-135.5625 223.46875-269.78125 0-146.5-113.019531-252.75-268.746094-252.75-3.445312 0-6.988281.105469-10.429687.210938-3.121094-.03125-5.726563-1.019532-7.8125-3.035157-2.082031-2.027343-3.257813-4.804687-3.257813-7.714843v-54.570313l-196.078124 140.054687 196.078124 130.722657v-71.722657c0-3.265624 1.484376-6.351562 4.035157-8.398437 1.925781-1.53125 4.296875-2.351563 6.714843-2.351563zm0 0"/></svg>