<?xml version="1.0" encoding="iso-8859-1"?>
<!-- Generator: Adobe Illustrator 19.0.0, SVG Export Plug-In . SVG Version: 6.00 Build 0)  -->
<svg version="1.1" id="Capa_1" xmlns="http://www.w3.org/2000/svg" xmlns:xlink="http://www.w3.org/1999/xlink" x="0px" y="0px"
	 viewBox="0 0 488.067 488.067" style="enable-background:new 0 0 488.067 488.067;" xml:space="preserve">
<g>
	<g>
		<path d="M376.033,448.067h-92v-8c-0.042-10.134-6.445-19.15-16-22.528v-35.024C373.24,369.26,447.782,273.227,434.527,168.02
			C421.273,62.813,325.24-11.728,220.033,1.526C114.826,14.781,40.284,110.813,53.539,216.02
			c10.962,87.009,79.485,155.532,166.494,166.494v35.024c-9.555,3.378-15.958,12.394-16,22.528v8h-92c-11.046,0-20,8.954-20,20
			c0,11.046,8.954,20,20,20h264c11.046,0,20-8.954,20-20C396.033,457.021,387.079,448.067,376.033,448.067z M68.033,192.067
			c0-97.202,78.798-176,176-176s176,78.798,176,176s-78.798,176-176,176C146.877,367.956,68.144,289.223,68.033,192.067z
			 M252.033,384.067v32h-16v-32H252.033z M220.033,440.067c0-4.418,3.582-8,8-8h32c4.418,0,8,3.582,8,8v8h-48V440.067z
			 M376.033,472.067h-264c-2.209,0-4-1.791-4-4c0-2.209,1.791-4,4-4h264c2.209,0,4,1.791,4,4
			C380.033,470.276,378.242,472.067,376.033,472.067z"/>
	</g>
</g>
<g>
	<g>
		<path d="M244.033,64.067c-70.692,0-128,57.308-128,128s57.308,128,128,128c70.658-0.084,127.916-57.342,128-128
			C372.033,121.374,314.726,64.067,244.033,64.067z M324.033,128.067c0,13.255-10.745,24-24,24s-24-10.745-24-24s10.745-24,24-24
			S324.033,114.812,324.033,128.067z M284.033,184.067c0,8.837-7.163,16-16,16s-16-7.163-16-16s7.163-16,16-16
			S284.033,175.23,284.033,184.067z M302.379,287.628c-52.737,32.259-121.639,15.658-153.898-37.078
			c-10.769-17.605-16.462-37.846-16.448-58.484c-0.093-61.763,49.901-111.907,111.664-112c15.712-0.024,31.252,3.264,45.608,9.648
			c-21.105,5.702-33.591,27.434-27.889,48.538c1.353,5.008,3.678,9.702,6.841,13.814c-0.08,0-0.144,0-0.224,0
			c-17.673,0-32,14.327-32,32s14.327,32,32,32c17.673,0,32-14.327,32-32c-0.026-5.822-1.657-11.524-4.712-16.48
			c1.559,0.257,3.133,0.418,4.712,0.48c19.848-0.058,36.641-14.684,39.424-34.336C371.716,186.467,355.116,255.37,302.379,287.628z"
			/>
	</g>
</g>
<g>
</g>
<g>
</g>
<g>
</g>
<g>
</g>
<g>
</g>
<g>
</g>
<g>
</g>
<g>
</g>
<g>
</g>
<g>
</g>
<g>
</g>
<g>
</g>
<g>
</g>
<g>
</g>
<g>
</g>
</svg>
